<?xml version="1.0" encoding="UTF-8" standalone="no"?>
<!-- Created with Inkscape (http://www.inkscape.org/) -->

<svg
   width="210mm"
   height="297mm"
   viewBox="0 0 210 297"
   version="1.1"
   id="svg5"
   xml:space="preserve"
   xmlns="http://www.w3.org/2000/svg"
   xmlns:svg="http://www.w3.org/2000/svg"><defs
     id="defs2" /><g
     id="layer1"><path
       style="fill:#ff9955;stroke:#ffcb3f;stroke-width:0"
       d="m 94.264887,119.3766 -20.236428,14.91059 28.036831,11.09073 z"
       id="path1006" /><path
       style="fill:#ff9955;stroke:#ffcb3f;stroke-width:0"
       d="m 75.925091,110 7.77857,21.78 -8.485714,2.12143 z"
       id="path784" /><path
       style="fill:#ff7f2a;stroke:#ffcb3f;stroke-width:0"
       d="m 102.16081,118.21064 -3.36704,38.23362 5.93951,9.47399 z"
       id="path1568" /><path
       style="fill:#ff6600;stroke:#ffcb3f;stroke-width:0"
       d="m 75.783663,110 14.567144,13.71857 -6.638305,8.07027 z"
       id="path786" /><path
       style="fill:#e6e6e6;stroke:#ffcb3f;stroke-width:0"
       d="m 76.844375,133.47714 0.07072,-14.56714 6.717858,12.79928 z"
       id="path842" /><path
       style="fill:#ffb380;stroke:#ffcb3f;stroke-width:0"
       d="m 94.240087,119.33429 7.908483,-1.06528 0.11445,28.89267 z"
       id="path1010" /><path
       style="fill:#ffe6d5;stroke:#ffcb3f;stroke-width:0"
       d="M 76.482293,140.57351 103.4698,157.90372 92.224997,175.49851 Z"
       id="path1066" /><path
       style="fill:#ffccaa;stroke:#ffcb3f;stroke-width:0"
       d="m 102.14688,136.47247 -12.303133,12.83229 13.361463,9.525 z"
       id="path1374" /><path
       style="fill:#ffb380;stroke:#ffcb3f;stroke-width:0"
       d="m 74.034897,134.28966 -4.034896,14.75052 26.061456,-6.08542 z"
       id="path1377" /><path
       style="fill:#ff7f2a;stroke:#ffcb3f;stroke-width:0"
       d="m 106.87589,118.30721 5.28527,38.96121 -7.85774,8.74639 z"
       id="path1568-8" /><path
       style="fill:#ffccaa;stroke:#ffcb3f;stroke-width:0"
       d="M 70.036352,148.9286 92.245107,175.22591 79.429534,146.78843 Z"
       id="path1379" /><path
       style="fill:#ffb380;stroke:#ffcb3f;stroke-width:0"
       d="m 70.0751,148.75286 10.196333,19.08305 12.254314,7.57709 z"
       id="path1435" /><path
       style="fill:#ffccaa;stroke:#ffcb3f;stroke-width:0"
       d="m 104.66042,163.19539 -3.83646,-3.04271 -3.175,6.61458 z"
       id="path1437" /><path
       style="fill:#ffccaa;stroke:#ffcb3f;stroke-width:0"
       d="m 100.89013,160.15267 -3.10886,6.35 -3.505733,-8.26823 z"
       id="path1437-7" /><path
       style="fill:#ffccaa;stroke:#ffcb3f;stroke-width:0"
       d="m 92.076667,175.1711 12.451463,2.80788 -6.76576,-11.40448 z"
       id="path1464" /><path
       style="fill:#ffb380;stroke:#ffcb3f;stroke-width:0"
       d="m 104.72657,163.06309 -0.19844,15.01511 -6.81302,-11.50937 z"
       id="path1466" /><path
       style="fill:#ff9955;stroke:#ffcb3f;stroke-width:0"
       d="m 114.80997,119.50669 20.23643,14.91059 -28.03683,11.09073 z"
       id="path1006-4" /><path
       style="fill:#ff9955;stroke:#ffcb3f;stroke-width:0"
       d="m 133.14977,110.13009 -7.77857,21.78 8.48571,2.12143 z"
       id="path784-8" /><path
       style="fill:#ff6600;stroke:#ffcb3f;stroke-width:0"
       d="m 133.2912,110.13009 -14.56715,13.71857 6.63831,8.07027 z"
       id="path786-0" /><path
       style="fill:#e6e6e6;stroke:#ffcb3f;stroke-width:0"
       d="m 132.23049,133.60723 -0.0707,-14.56714 -6.71786,12.79928 z"
       id="path842-8" /><path
       style="fill:#ffb380;stroke:#ffcb3f;stroke-width:0"
       d="m 114.83477,119.46438 -7.90848,-1.06528 -0.11445,28.89267 z"
       id="path1010-3" /><path
       style="fill:#ffe6d5;stroke:#ffcb3f;stroke-width:0"
       d="m 132.59257,140.7036 -26.98751,17.33021 11.2448,17.59479 z"
       id="path1066-1" /><path
       style="fill:#ffccaa;stroke:#ffcb3f;stroke-width:0"
       d="m 106.92798,136.60256 12.30313,12.83229 -13.36146,9.525 z"
       id="path1374-9" /><path
       style="fill:#ffb380;stroke:#ffcb3f;stroke-width:0"
       d="m 135.03996,134.41975 4.0349,14.75052 -26.06146,-6.08542 z"
       id="path1377-1" /><path
       style="fill:#ffccaa;stroke:#ffcb3f;stroke-width:0"
       d="M 139.03851,149.05869 116.82975,175.356 129.64533,146.91852 Z"
       id="path1379-3" /><path
       style="fill:#ffb380;stroke:#ffcb3f;stroke-width:0"
       d="m 138.99976,148.88295 -10.19633,19.08305 -12.25432,7.57709 z"
       id="path1435-7" /><path
       style="fill:#ffccaa;stroke:#ffcb3f;stroke-width:0"
       d="m 104.41444,163.32548 3.83646,-3.04271 3.175,6.61458 z"
       id="path1437-1" /><path
       style="fill:#ffccaa;stroke:#ffcb3f;stroke-width:0"
       d="m 108.18473,160.28276 3.10886,6.35 3.50573,-8.26823 z"
       id="path1437-7-9" /><path
       style="fill:#ffccaa;stroke:#ffcb3f;stroke-width:0"
       d="m 116.99819,175.30119 -12.45146,2.80788 6.76576,-11.40448 z"
       id="path1464-2" /><path
       style="fill:#ffb380;stroke:#ffcb3f;stroke-width:0"
       d="m 104.34829,163.19318 0.19844,15.01511 6.81302,-11.50937 z"
       id="path1466-5" /><path
       style="fill:#ff6600;stroke:#ffcb3f;stroke-width:0"
       d="m 102.14688,118.34851 2.44739,44.91302 2.31511,-44.91302 z"
       id="path1566" /><path
       style="fill:#552200;stroke:#ffcb3f;stroke-width:0"
       d="m 99.09266,159.18469 2.31957,-4.00547 2.31518,0.80679 z"
       id="path1610" /><path
       style="fill:#552200;stroke:#ffcb3f;stroke-width:0"
       d="m 110.47126,159.29212 -3.10442,-4.08659 -2.31522,0.80678 z"
       id="path1610-7" /><path
       style="fill:#2b1100;stroke:#ffcb3f;stroke-width:0"
       d="m 103.74999,155.90968 0.21594,7.35401 -4.87917,-4.07989 z"
       id="path1260" /><path
       style="fill:#2b1100;stroke:#ffcb3f;stroke-width:0"
       d="m 105.79643,156.00725 -0.19846,7.14354 4.86163,-3.86942 z"
       id="path1260-4" /><path
       style="fill:#552200;stroke:#ffcb3f;stroke-width:0"
       d="m 101.41226,155.18027 5.95892,0.0165 -2.4949,1.50836 z"
       id="path1720" /><path
       style="fill:#552200;stroke:#ffcb3f;stroke-width:0"
       d="m 103.38874,156.11237 1.31857,7.73264 1.16061,-7.70784 z"
       id="path1763" /><path
       style="fill:#803300;stroke:#ffcb3f;stroke-width:0"
       d="m 104.69776,163.81947 0.9025,-0.67517 0.24649,-6.89396 z"
       id="path1819" /><path
       style="fill:#803300;stroke:#ffcb3f;stroke-width:0"
       d="m 103.42679,156.08757 0.50645,7.12466 0.7764,0.63201 z"
       id="path1875" /><path
       style="fill:#aa4400;stroke:#ffcb3f;stroke-width:0"
       d="m 99.07276,159.21889 0.23652,-3.13132 2.13315,-0.94255 z"
       id="path1931" /><path
       style="fill:#aa4400;stroke:#ffcb3f;stroke-width:0"
       d="m 110.41586,159.3647 -1.03031,-3.28014 -2.13311,-0.94255 z"
       id="path1931-2" /><path
       style="fill:#aa4400;stroke:#ffcb3f;stroke-width:0"
       d="m 99.07877,159.16026 1.42113,2.68183 4.23423,1.93471 z"
       id="path1955" /><path
       style="fill:#aa4400;stroke:#ffcb3f;stroke-width:0"
       d="m 110.37196,159.18657 -1.42107,2.68183 -4.23424,1.93471 z"
       id="path1955-3" /><path
       style="fill:#552200;stroke:#ffcb3f;stroke-width:0"
       d="m 84.330363,145.57776 5.901114,3.79358 5.69037,-6.46313 z"
       id="path2049" /><path
       style="fill:#552200;stroke:#ffcb3f;stroke-width:0"
       d="m 124.74366,145.76619 -5.51524,3.67665 -6.07624,-6.3462 z"
       id="path2049-3" /><path
       style="fill:#ffffff;stroke:#ffcb3f;stroke-width:0"
       d="m 88.968257,146.1915 -0.29256,0.70831 1.14431,0.0174 z"
       id="path2103" /><path
       style="fill:#ffffff;stroke:#ffcb3f;stroke-width:0"
       d="m 89.433177,146.9209 1.02165,-0.8041 0.0843,0.6515 z"
       id="path2107" /><path
       style="fill:#ffffff;stroke:#ffcb3f;stroke-width:0"
       d="m 89.271727,146.77833 0.84814,0.79972 0.41873,-0.8144 z"
       id="path2109" /><path
       style="fill:#ffffff;stroke:#ffcb3f;stroke-width:0"
       d="m 89.459977,146.58432 0.18185,1.03408 0.48088,-0.0429 z"
       id="path2111" /><path
       style="fill:#ffffff;stroke:#ffcb3f;stroke-width:0"
       d="m 89.654477,146.67524 -0.69798,0.94004 0.68863,0.003 z"
       id="path2113" /><path
       style="fill:#ffffff;stroke:#ffcb3f;stroke-width:0"
       d="m 89.539977,146.87763 0.017,-1.19083 0.90475,0.42739 z"
       id="path2115" /><path
       style="fill:#ffffff;stroke:#ffcb3f;stroke-width:0"
       d="m 89.559707,145.6864 -0.5923,0.50855 0.88245,0.90191 z"
       id="path2117" /><path
       style="fill:#ffffff;stroke:#ffcb3f;stroke-width:0"
       d="m 88.673667,146.89698 0.28699,0.71986 0.7491,-0.97249 z"
       id="path2119" /><path
       style="fill:#ffffff;stroke:#ffcb3f;stroke-width:0"
       d="m 118.16095,145.83423 -0.29256,0.70831 1.14432,0.0174 z"
       id="path2103-7" /><path
       style="fill:#ffffff;stroke:#ffcb3f;stroke-width:0"
       d="m 118.62587,146.56363 1.02165,-0.8041 0.0843,0.6515 z"
       id="path2107-6" /><path
       style="fill:#ffffff;stroke:#ffcb3f;stroke-width:0"
       d="m 118.46442,146.42106 0.84814,0.79972 0.41873,-0.8144 z"
       id="path2109-8" /><path
       style="fill:#ffffff;stroke:#ffcb3f;stroke-width:0"
       d="m 118.65267,146.22705 0.18185,1.03408 0.48088,-0.0429 z"
       id="path2111-5" /><path
       style="fill:#ffffff;stroke:#ffcb3f;stroke-width:0"
       d="m 118.84717,146.31797 -0.69798,0.94004 0.68863,0.003 z"
       id="path2113-9" /><path
       style="fill:#ffffff;stroke:#ffcb3f;stroke-width:0"
       d="m 118.73267,146.52036 0.017,-1.19083 0.90475,0.42739 z"
       id="path2115-3" /><path
       style="fill:#ffffff;stroke:#ffcb3f;stroke-width:0"
       d="m 118.75241,145.32913 -0.5923,0.50855 0.88245,0.90191 z"
       id="path2117-5" /><path
       style="fill:#ffffff;stroke:#ffcb3f;stroke-width:0"
       d="m 117.86636,146.53971 0.28699,0.71986 0.7491,-0.97249 z"
       id="path2119-3" /></g></svg>
